<svg viewBox="0 0 64 64" xmlns="http://www.w3.org/2000/svg">
<path d="M15.1 53.48 16.86 50l9.35-18.52-6.51 2.11-7.29 6.26c-.23.38-.31.82-.23 1.25l2.65 11.53c.07.3.16.58.28.87Z" fill="#697f94" class="fill-8598ab fill-697f94"></path>
<path d="m16.01 6.51 2.96.84.34 2.28.11 2.2-3.05 1.04-1.71-1.55c-.44-.4-.58-1.04-.35-1.59l1.06-2.52c.13-.29.35-.54.63-.69Z" fill="#b6cedb" class="fill-d7e5eb fill-bdc5c9"></path>
<path d="m16.01 6.51 2.07 6.06 2.55-2.9-4.62-3.15Z" fill="#c7d0f5" class="fill-c0d8df fill-c7d0f5"></path>
<path d="M22.84 5.74 21.73 9.5l-2.41.12-3.3-3.11c.23-.14.49-.22.76-.23h5.58l.5-.54Z" fill="#b5b5b5" class="fill-e2eef2 fill-69767a"></path>
<path d="m47.14 50-9.35-18.52-5.71-2.02-5.89 2.02L16.84 50l15.15 3.39L47.12 50Z" fill="#b6cedb" class="fill-d7e5eb fill-bdc5c9"></path>
<path d="M26.2 31.48 12.68 43.36l-.52-2.26c-.09-.4-.04-.82.14-1.2l7.24-5.62 6.65-2.8Z" fill="#616161" class="fill-758797 fill-5881a8"></path>
<path d="m12.4 39.84 13.81-8.37-1.95-1.25-3.67 1.25-7.93 7.93c-.1.13-.19.28-.25.43Z" fill="#21180d" class="fill-9dacb9"></path>
<path d="m26.27 59 1.62-3.03L24.44 50h-7.58l-1.76 3.48c.13.33.29.65.49.95l2.4 3.72c.34.52.92.84 1.54.84h6.74Z" fill="#dce4e8" class="fill-f0f4f6 fill-dce4e8"></path>
<path d="M26.2 31.48 16.85 50l2.64.59 6.71-19.11Z" fill="#c7d0f5" class="fill-c0d8df fill-c7d0f5"></path>
<path d="m16.86 50-1.76 3.48c.13.33.29.65.49.95L17.25 57l2.46-7h-2.84Z" fill="#b5b5b5" class="fill-e2eef2 fill-69767a"></path>
<path d="M37.8 31.48 47.15 50l-2.64.59-6.71-19.11Z" fill="#c7d0f5" class="fill-c0d8df fill-c7d0f5"></path>
<path d="m47.14 50 1.76 3.48c-.13.33-.29.65-.49.95L46.75 57l-2.46-7h2.84Z" fill="#b5b5b5" class="fill-e2eef2 fill-69767a"></path>
<path d="m37.73 59-1.62-3.03L39.56 50h2.98v-2.58l-5.27-5.66H26.73l-5.27 5.66V50h2.98l3.45 5.97L26.27 59h11.47Z" fill="#697f94" class="fill-8598ab fill-697f94"></path>
<path d="M48.9 53.48 47.14 50h-7.58l-3.45 5.97L37.73 59h6.73c.62 0 1.21-.32 1.54-.84l2.4-3.72c.19-.3.36-.62.49-.95Z" fill="#dce4e8" class="fill-f0f4f6 fill-dce4e8"></path>
<path d="m51.69 39.9-7.24-5.62-6.65-2.8L47.15 50l1.76 3.48c.12-.28.21-.57.28-.87l2.65-11.53c.09-.4.04-.82-.14-1.2Z" fill="#697f94" class="fill-8598ab fill-697f94"></path>
<path d="m37.8 31.48 13.52 11.88.52-2.26c.09-.4.04-.82-.14-1.2l-7.24-5.62-6.65-2.8Z" fill="#616161" class="fill-758797 fill-5881a8"></path>
<path d="m43.42 31.48-3-1.64-2.62 1.64 13.9 8.42c-.09-.18-.2-.34-.34-.49l-7.93-7.93Z" fill="#21180d" class="fill-9dacb9"></path>
<path d="m24.34 19.38-6.65 5.11 2.89 6.99h22.84l.21-.21 2.87-6.78-6.65-5.12h-15.5Z" fill="#f0f0f0" class="fill-f9fbfc fill-f0f0f0"></path>
<path d="m38.58 20.21 5.56 4.28.36-4.82-2.32-2.4-3.6 2.95ZM20.05 24.49l5.56-4.28-3.6-2.95-2.32 2.4.36 4.82Z" fill="#21180d" class="fill-9dacb9"></path>
<path d="m47.99 6.51-2.96.84-.34 2.28-.11 2.2 3.05 1.04 1.71-1.55c.44-.4.58-1.04.35-1.59l-1.06-2.52c-.13-.29-.35-.54-.63-.69Z" fill="#b6cedb" class="fill-d7e5eb fill-bdc5c9"></path>
<path d="m47.99 6.51-2.07 6.06-2.55-2.9 4.62-3.15Z" fill="#c7d0f5" class="fill-c0d8df fill-c7d0f5"></path>
<path d="m41.16 5.74 1.11 3.76 2.41.12 3.3-3.11a1.57 1.57 0 0 0-.76-.23h-5.58l-.5-.54Z" fill="#b5b5b5" class="fill-e2eef2 fill-69767a"></path>
<path d="m22.84 5.74-.49.55-2.99 3.29-2.99 3.29-.48.52-.11.12c-.43.48-.67 1.1-.67 1.74V25c0 .64.25 1.25.71 1.71l4.77 4.77-.53-6.99-.36-4.82 2.32-2.4 3.6 2.95 6.48 5.31 6.48-5.31 3.6-2.95 2.32 2.4-.36 4.82-.51 6.78 4.56-4.56c.45-.45.71-1.07.71-1.71v-9.75c0-.64-.24-1.26-.67-1.74l-.58-.64-2.94-3.24-3.53-3.89c-.43-.47-1.03-.74-1.67-.74H24.53c-.63 0-1.24.27-1.67.74Z" fill="#dce4e8" class="fill-f0f4f6 fill-dce4e8"></path>
</svg>